<?xml version="1.0" encoding="UTF-8" standalone="no"?>
<!DOCTYPE svg PUBLIC "-//W3C//DTD SVG 1.1//EN"
 "http://www.w3.org/Graphics/SVG/1.1/DTD/svg11.dtd">
<!-- Generated by graphviz version 2.43.0 (0)
 -->
<!-- Title: ViTUNetSeg Pages: 1 -->
<svg width="840" height="891"
 viewBox="-31.88 -219.32 840.00 891.20" xmlns="http://www.w3.org/2000/svg" xmlns:xlink="http://www.w3.org/1999/xlink">
<g id="graph0" class="graph" transform="scale(1.33 1.33) rotate(0) translate(36 604)">
<title>ViTUNetSeg</title>
<polygon fill="#f8fafc" stroke="transparent" points="-36,36 -36,-604 565.5,-604 565.5,36 -36,36"/>
<!-- 0 -->
<g id="node1" class="node">
<title>0</title>
<polygon fill="lightyellow" stroke="transparent" points="295.5,-568 141.5,-568 141.5,-536 295.5,-536 295.5,-568"/>
<polygon fill="none" stroke="black" points="141.5,-536 141.5,-568 211.5,-568 211.5,-536 141.5,-536"/>
<text text-anchor="start" x="146.5" y="-555" font-family="Linux libertine" font-size="10.00">input&#45;tensor</text>
<text text-anchor="start" x="158" y="-544" font-family="Linux libertine" font-size="10.00">depth:0</text>
<polygon fill="none" stroke="black" points="211.5,-536 211.5,-568 295.5,-568 295.5,-536 211.5,-536"/>
<text text-anchor="start" x="216.5" y="-549.5" font-family="Linux libertine" font-size="10.00">(1, 3, 224, 224)</text>
</g>
<!-- 1 -->
<g id="node2" class="node">
<title>1</title>
<polygon fill="#c1ffc1" stroke="transparent" points="209,-500 0,-500 0,-458 209,-458 209,-500"/>
<polygon fill="none" stroke="black" points="0.5,-458 0.5,-500 74.5,-500 74.5,-458 0.5,-458"/>
<text text-anchor="start" x="5.5" y="-482" font-family="Linux libertine" font-size="10.00">ViT_B16_CLS</text>
<text text-anchor="start" x="19" y="-471" font-family="Linux libertine" font-size="10.00">depth:1</text>
<polygon fill="none" stroke="black" points="74.5,-479 74.5,-500 122.5,-500 122.5,-479 74.5,-479"/>
<text text-anchor="start" x="84.5" y="-487" font-family="Linux libertine" font-size="10.00">input:</text>
<polygon fill="none" stroke="black" points="122.5,-479 122.5,-500 209.5,-500 209.5,-479 122.5,-479"/>
<text text-anchor="start" x="127.5" y="-487" font-family="Linux libertine" font-size="10.00">(1, 3, 224, 224) </text>
<polygon fill="none" stroke="black" points="74.5,-458 74.5,-479 122.5,-479 122.5,-458 74.5,-458"/>
<text text-anchor="start" x="79.5" y="-466" font-family="Linux libertine" font-size="10.00">output: </text>
<polygon fill="none" stroke="black" points="122.5,-458 122.5,-479 209.5,-479 209.5,-458 122.5,-458"/>
<text text-anchor="start" x="145.5" y="-466" font-family="Linux libertine" font-size="10.00">(1, 768) </text>
</g>
<!-- 0&#45;&gt;1 -->
<g id="edge1" class="edge">
<title>0&#45;&gt;1</title>
<path fill="none" stroke="black" d="M194.32,-535.94C180.21,-527.15 162.01,-515.82 145.7,-505.66"/>
<polygon fill="black" stroke="black" points="147.2,-502.47 136.86,-500.16 143.5,-508.41 147.2,-502.47"/>
</g>
<!-- 4 -->
<g id="node5" class="node">
<title>4</title>
<polygon fill="#c1ffc1" stroke="transparent" points="437.5,-500 227.5,-500 227.5,-458 437.5,-458 437.5,-500"/>
<polygon fill="none" stroke="black" points="227.5,-458 227.5,-500 302.5,-500 302.5,-458 227.5,-458"/>
<text text-anchor="start" x="232.5" y="-482" font-family="Linux libertine" font-size="10.00">ViT_B16_SEG</text>
<text text-anchor="start" x="246.5" y="-471" font-family="Linux libertine" font-size="10.00">depth:1</text>
<polygon fill="none" stroke="black" points="302.5,-479 302.5,-500 350.5,-500 350.5,-479 302.5,-479"/>
<text text-anchor="start" x="312.5" y="-487" font-family="Linux libertine" font-size="10.00">input:</text>
<polygon fill="none" stroke="black" points="350.5,-479 350.5,-500 437.5,-500 437.5,-479 350.5,-479"/>
<text text-anchor="start" x="355.5" y="-487" font-family="Linux libertine" font-size="10.00">(1, 3, 224, 224) </text>
<polygon fill="none" stroke="black" points="302.5,-458 302.5,-479 350.5,-479 350.5,-458 302.5,-458"/>
<text text-anchor="start" x="307.5" y="-466" font-family="Linux libertine" font-size="10.00">output: </text>
<polygon fill="none" stroke="black" points="350.5,-458 350.5,-479 437.5,-479 437.5,-458 350.5,-458"/>
<text text-anchor="start" x="355.5" y="-466" font-family="Linux libertine" font-size="10.00">(1, 768, 14, 14) </text>
</g>
<!-- 0&#45;&gt;4 -->
<g id="edge2" class="edge">
<title>0&#45;&gt;4</title>
<path fill="none" stroke="black" d="M242.68,-535.94C256.79,-527.15 274.99,-515.82 291.3,-505.66"/>
<polygon fill="black" stroke="black" points="293.5,-508.41 300.14,-500.16 289.8,-502.47 293.5,-508.41"/>
</g>
<!-- 2 -->
<g id="node3" class="node">
<title>2</title>
<polygon fill="#c1ffc1" stroke="transparent" points="177.5,-422 31.5,-422 31.5,-380 177.5,-380 177.5,-422"/>
<polygon fill="none" stroke="black" points="31.5,-380 31.5,-422 78.5,-422 78.5,-380 31.5,-380"/>
<text text-anchor="start" x="39.5" y="-404" font-family="Linux libertine" font-size="10.00">Linear</text>
<text text-anchor="start" x="36.5" y="-393" font-family="Linux libertine" font-size="10.00">depth:1</text>
<polygon fill="none" stroke="black" points="78.5,-401 78.5,-422 126.5,-422 126.5,-401 78.5,-401"/>
<text text-anchor="start" x="88.5" y="-409" font-family="Linux libertine" font-size="10.00">input:</text>
<polygon fill="none" stroke="black" points="126.5,-401 126.5,-422 177.5,-422 177.5,-401 126.5,-401"/>
<text text-anchor="start" x="131.5" y="-409" font-family="Linux libertine" font-size="10.00">(1, 768) </text>
<polygon fill="none" stroke="black" points="78.5,-380 78.5,-401 126.5,-401 126.5,-380 78.5,-380"/>
<text text-anchor="start" x="83.5" y="-388" font-family="Linux libertine" font-size="10.00">output: </text>
<polygon fill="none" stroke="black" points="126.5,-380 126.5,-401 177.5,-401 177.5,-380 126.5,-380"/>
<text text-anchor="start" x="137.5" y="-388" font-family="Linux libertine" font-size="10.00">(1, 2) </text>
</g>
<!-- 1&#45;&gt;2 -->
<g id="edge3" class="edge">
<title>1&#45;&gt;2</title>
<path fill="none" stroke="black" d="M104.5,-457.63C104.5,-449.82 104.5,-440.73 104.5,-432.18"/>
<polygon fill="black" stroke="black" points="108,-432.16 104.5,-422.16 101,-432.16 108,-432.16"/>
</g>
<!-- 3 -->
<g id="node4" class="node">
<title>3</title>
<polygon fill="lightyellow" stroke="transparent" points="150.5,-339 58.5,-339 58.5,-307 150.5,-307 150.5,-339"/>
<polygon fill="none" stroke="black" points="58.5,-307 58.5,-339 114.5,-339 114.5,-307 58.5,-307"/>
<text text-anchor="start" x="63.5" y="-326" font-family="Linux libertine" font-size="10.00">cls_logits</text>
<text text-anchor="start" x="68" y="-315" font-family="Linux libertine" font-size="10.00">depth:0</text>
<polygon fill="none" stroke="black" points="114.5,-307 114.5,-339 150.5,-339 150.5,-307 114.5,-307"/>
<text text-anchor="start" x="119.5" y="-320.5" font-family="Linux libertine" font-size="10.00">(1, 2)</text>
</g>
<!-- 2&#45;&gt;3 -->
<g id="edge4" class="edge">
<title>2&#45;&gt;3</title>
<path fill="none" stroke="black" d="M104.5,-379.63C104.5,-370.33 104.5,-359.22 104.5,-349.39"/>
<polygon fill="black" stroke="black" points="108,-349.36 104.5,-339.36 101,-349.36 108,-349.36"/>
</g>
<!-- 5 -->
<g id="node6" class="node">
<title>5</title>
<polygon fill="#ccfbf1" stroke="transparent" points="425.5,-422 239.5,-422 239.5,-380 425.5,-380 425.5,-422"/>
<polygon fill="none" stroke="black" points="239.5,-380 239.5,-422 290.5,-422 290.5,-380 239.5,-380"/>
<text text-anchor="start" x="244.5" y="-404" font-family="Linux libertine" font-size="10.00" fill="#0f766e">UpBlock</text>
<text text-anchor="start" x="246.5" y="-393" font-family="Linux libertine" font-size="10.00" fill="#0f766e">depth:1</text>
<polygon fill="none" stroke="black" points="290.5,-401 290.5,-422 338.5,-422 338.5,-401 290.5,-401"/>
<text text-anchor="start" x="300.5" y="-409" font-family="Linux libertine" font-size="10.00" fill="#0f766e">input:</text>
<polygon fill="none" stroke="black" points="338.5,-401 338.5,-422 425.5,-422 425.5,-401 338.5,-401"/>
<text text-anchor="start" x="343.5" y="-409" font-family="Linux libertine" font-size="10.00" fill="#0f766e">(1, 768, 14, 14) </text>
<polygon fill="none" stroke="black" points="290.5,-380 290.5,-401 338.5,-401 338.5,-380 290.5,-380"/>
<text text-anchor="start" x="295.5" y="-388" font-family="Linux libertine" font-size="10.00" fill="#0f766e">output: </text>
<polygon fill="none" stroke="black" points="338.5,-380 338.5,-401 425.5,-401 425.5,-380 338.5,-380"/>
<text text-anchor="start" x="343.5" y="-388" font-family="Linux libertine" font-size="10.00" fill="#0f766e">(1, 256, 28, 28) </text>
</g>
<!-- 4&#45;&gt;5 -->
<g id="edge5" class="edge">
<title>4&#45;&gt;5</title>
<path fill="none" stroke="black" d="M332.5,-457.63C332.5,-449.82 332.5,-440.73 332.5,-432.18"/>
<polygon fill="black" stroke="black" points="336,-432.16 332.5,-422.16 329,-432.16 336,-432.16"/>
</g>
<!-- 6 -->
<g id="node7" class="node">
<title>6</title>
<polygon fill="#ccfbf1" stroke="transparent" points="425.5,-344 239.5,-344 239.5,-302 425.5,-302 425.5,-344"/>
<polygon fill="none" stroke="black" points="239.5,-302 239.5,-344 290.5,-344 290.5,-302 239.5,-302"/>
<text text-anchor="start" x="244.5" y="-326" font-family="Linux libertine" font-size="10.00" fill="#0f766e">UpBlock</text>
<text text-anchor="start" x="246.5" y="-315" font-family="Linux libertine" font-size="10.00" fill="#0f766e">depth:1</text>
<polygon fill="none" stroke="black" points="290.5,-323 290.5,-344 338.5,-344 338.5,-323 290.5,-323"/>
<text text-anchor="start" x="300.5" y="-331" font-family="Linux libertine" font-size="10.00" fill="#0f766e">input:</text>
<polygon fill="none" stroke="black" points="338.5,-323 338.5,-344 425.5,-344 425.5,-323 338.5,-323"/>
<text text-anchor="start" x="343.5" y="-331" font-family="Linux libertine" font-size="10.00" fill="#0f766e">(1, 256, 28, 28) </text>
<polygon fill="none" stroke="black" points="290.5,-302 290.5,-323 338.5,-323 338.5,-302 290.5,-302"/>
<text text-anchor="start" x="295.5" y="-310" font-family="Linux libertine" font-size="10.00" fill="#0f766e">output: </text>
<polygon fill="none" stroke="black" points="338.5,-302 338.5,-323 425.5,-323 425.5,-302 338.5,-302"/>
<text text-anchor="start" x="343.5" y="-310" font-family="Linux libertine" font-size="10.00" fill="#0f766e">(1, 128, 56, 56) </text>
</g>
<!-- 5&#45;&gt;6 -->
<g id="edge6" class="edge">
<title>5&#45;&gt;6</title>
<path fill="none" stroke="black" d="M332.5,-379.63C332.5,-371.82 332.5,-362.73 332.5,-354.18"/>
<polygon fill="black" stroke="black" points="336,-354.16 332.5,-344.16 329,-354.16 336,-354.16"/>
</g>
<!-- 7 -->
<g id="node8" class="node">
<title>7</title>
<polygon fill="#ccfbf1" stroke="transparent" points="428.5,-266 236.5,-266 236.5,-224 428.5,-224 428.5,-266"/>
<polygon fill="none" stroke="black" points="236.5,-224 236.5,-266 287.5,-266 287.5,-224 236.5,-224"/>
<text text-anchor="start" x="241.5" y="-248" font-family="Linux libertine" font-size="10.00" fill="#0f766e">UpBlock</text>
<text text-anchor="start" x="243.5" y="-237" font-family="Linux libertine" font-size="10.00" fill="#0f766e">depth:1</text>
<polygon fill="none" stroke="black" points="287.5,-245 287.5,-266 335.5,-266 335.5,-245 287.5,-245"/>
<text text-anchor="start" x="297.5" y="-253" font-family="Linux libertine" font-size="10.00" fill="#0f766e">input:</text>
<polygon fill="none" stroke="black" points="335.5,-245 335.5,-266 428.5,-266 428.5,-245 335.5,-245"/>
<text text-anchor="start" x="343.5" y="-253" font-family="Linux libertine" font-size="10.00" fill="#0f766e">(1, 128, 56, 56) </text>
<polygon fill="none" stroke="black" points="287.5,-224 287.5,-245 335.5,-245 335.5,-224 287.5,-224"/>
<text text-anchor="start" x="292.5" y="-232" font-family="Linux libertine" font-size="10.00" fill="#0f766e">output: </text>
<polygon fill="none" stroke="black" points="335.5,-224 335.5,-245 428.5,-245 428.5,-224 335.5,-224"/>
<text text-anchor="start" x="340.5" y="-232" font-family="Linux libertine" font-size="10.00" fill="#0f766e">(1, 64, 112, 112) </text>
</g>
<!-- 6&#45;&gt;7 -->
<g id="edge7" class="edge">
<title>6&#45;&gt;7</title>
<path fill="none" stroke="black" d="M332.5,-301.63C332.5,-293.82 332.5,-284.73 332.5,-276.18"/>
<polygon fill="black" stroke="black" points="336,-276.16 332.5,-266.16 329,-276.16 336,-276.16"/>
</g>
<!-- 8 -->
<g id="node9" class="node">
<title>8</title>
<polygon fill="#ccfbf1" stroke="transparent" points="428.5,-188 236.5,-188 236.5,-146 428.5,-146 428.5,-188"/>
<polygon fill="none" stroke="black" points="236.5,-146 236.5,-188 287.5,-188 287.5,-146 236.5,-146"/>
<text text-anchor="start" x="241.5" y="-170" font-family="Linux libertine" font-size="10.00" fill="#0f766e">UpBlock</text>
<text text-anchor="start" x="243.5" y="-159" font-family="Linux libertine" font-size="10.00" fill="#0f766e">depth:1</text>
<polygon fill="none" stroke="black" points="287.5,-167 287.5,-188 335.5,-188 335.5,-167 287.5,-167"/>
<text text-anchor="start" x="297.5" y="-175" font-family="Linux libertine" font-size="10.00" fill="#0f766e">input:</text>
<polygon fill="none" stroke="black" points="335.5,-167 335.5,-188 428.5,-188 428.5,-167 335.5,-167"/>
<text text-anchor="start" x="340.5" y="-175" font-family="Linux libertine" font-size="10.00" fill="#0f766e">(1, 64, 112, 112) </text>
<polygon fill="none" stroke="black" points="287.5,-146 287.5,-167 335.5,-167 335.5,-146 287.5,-146"/>
<text text-anchor="start" x="292.5" y="-154" font-family="Linux libertine" font-size="10.00" fill="#0f766e">output: </text>
<polygon fill="none" stroke="black" points="335.5,-146 335.5,-167 428.5,-167 428.5,-146 335.5,-146"/>
<text text-anchor="start" x="340.5" y="-154" font-family="Linux libertine" font-size="10.00" fill="#0f766e">(1, 32, 224, 224) </text>
</g>
<!-- 7&#45;&gt;8 -->
<g id="edge8" class="edge">
<title>7&#45;&gt;8</title>
<path fill="none" stroke="black" d="M332.5,-223.63C332.5,-215.82 332.5,-206.73 332.5,-198.18"/>
<polygon fill="black" stroke="black" points="336,-198.16 332.5,-188.16 329,-198.16 336,-198.16"/>
</g>
<!-- 9 -->
<g id="node10" class="node">
<title>9</title>
<polygon fill="#c1ffc1" stroke="transparent" points="323.5,-110 135.5,-110 135.5,-68 323.5,-68 323.5,-110"/>
<polygon fill="none" stroke="black" points="135.5,-68 135.5,-110 182.5,-110 182.5,-68 135.5,-68"/>
<text text-anchor="start" x="140.5" y="-92" font-family="Linux libertine" font-size="10.00">Conv2d</text>
<text text-anchor="start" x="140.5" y="-81" font-family="Linux libertine" font-size="10.00">depth:1</text>
<polygon fill="none" stroke="black" points="182.5,-89 182.5,-110 230.5,-110 230.5,-89 182.5,-89"/>
<text text-anchor="start" x="192.5" y="-97" font-family="Linux libertine" font-size="10.00">input:</text>
<polygon fill="none" stroke="black" points="230.5,-89 230.5,-110 323.5,-110 323.5,-89 230.5,-89"/>
<text text-anchor="start" x="235.5" y="-97" font-family="Linux libertine" font-size="10.00">(1, 32, 224, 224) </text>
<polygon fill="none" stroke="black" points="182.5,-68 182.5,-89 230.5,-89 230.5,-68 182.5,-68"/>
<text text-anchor="start" x="187.5" y="-76" font-family="Linux libertine" font-size="10.00">output: </text>
<polygon fill="none" stroke="black" points="230.5,-68 230.5,-89 323.5,-89 323.5,-68 230.5,-68"/>
<text text-anchor="start" x="238.5" y="-76" font-family="Linux libertine" font-size="10.00">(1, 1, 224, 224) </text>
</g>
<!-- 8&#45;&gt;9 -->
<g id="edge9" class="edge">
<title>8&#45;&gt;9</title>
<path fill="none" stroke="black" d="M305.17,-145.83C292.95,-136.81 278.38,-126.06 265.3,-116.41"/>
<polygon fill="black" stroke="black" points="267.08,-113.38 256.96,-110.26 262.93,-119.01 267.08,-113.38"/>
</g>
<!-- 11 -->
<g id="node12" class="node">
<title>11</title>
<polygon fill="#c1ffc1" stroke="transparent" points="529.5,-110 341.5,-110 341.5,-68 529.5,-68 529.5,-110"/>
<polygon fill="none" stroke="black" points="341.5,-68 341.5,-110 388.5,-110 388.5,-68 341.5,-68"/>
<text text-anchor="start" x="346.5" y="-92" font-family="Linux libertine" font-size="10.00">Conv2d</text>
<text text-anchor="start" x="346.5" y="-81" font-family="Linux libertine" font-size="10.00">depth:1</text>
<polygon fill="none" stroke="black" points="388.5,-89 388.5,-110 436.5,-110 436.5,-89 388.5,-89"/>
<text text-anchor="start" x="398.5" y="-97" font-family="Linux libertine" font-size="10.00">input:</text>
<polygon fill="none" stroke="black" points="436.5,-89 436.5,-110 529.5,-110 529.5,-89 436.5,-89"/>
<text text-anchor="start" x="441.5" y="-97" font-family="Linux libertine" font-size="10.00">(1, 32, 224, 224) </text>
<polygon fill="none" stroke="black" points="388.5,-68 388.5,-89 436.5,-89 436.5,-68 388.5,-68"/>
<text text-anchor="start" x="393.5" y="-76" font-family="Linux libertine" font-size="10.00">output: </text>
<polygon fill="none" stroke="black" points="436.5,-68 436.5,-89 529.5,-89 529.5,-68 436.5,-68"/>
<text text-anchor="start" x="444.5" y="-76" font-family="Linux libertine" font-size="10.00">(1, 1, 224, 224) </text>
</g>
<!-- 8&#45;&gt;11 -->
<g id="edge10" class="edge">
<title>8&#45;&gt;11</title>
<path fill="none" stroke="black" d="M359.83,-145.83C372.05,-136.81 386.62,-126.06 399.7,-116.41"/>
<polygon fill="black" stroke="black" points="402.07,-119.01 408.04,-110.26 397.92,-113.38 402.07,-119.01"/>
</g>
<!-- 10 -->
<g id="node11" class="node">
<title>10</title>
<polygon fill="lightyellow" stroke="transparent" points="295,-32 164,-32 164,0 295,0 295,-32"/>
<polygon fill="none" stroke="black" points="164.5,0 164.5,-32 211.5,-32 211.5,0 164.5,0"/>
<text text-anchor="start" x="175.5" y="-19" font-family="Linux libertine" font-size="10.00">edge</text>
<text text-anchor="start" x="169.5" y="-8" font-family="Linux libertine" font-size="10.00">depth:0</text>
<polygon fill="none" stroke="black" points="211.5,0 211.5,-32 295.5,-32 295.5,0 211.5,0"/>
<text text-anchor="start" x="216.5" y="-13.5" font-family="Linux libertine" font-size="10.00">(1, 1, 224, 224)</text>
</g>
<!-- 9&#45;&gt;10 -->
<g id="edge11" class="edge">
<title>9&#45;&gt;10</title>
<path fill="none" stroke="black" d="M229.5,-67.84C229.5,-59.89 229.5,-50.66 229.5,-42.26"/>
<polygon fill="black" stroke="black" points="233,-42.24 229.5,-32.24 226,-42.24 233,-42.24"/>
</g>
<!-- 12 -->
<g id="node13" class="node">
<title>12</title>
<polygon fill="lightyellow" stroke="transparent" points="501,-32 370,-32 370,0 501,0 501,-32"/>
<polygon fill="none" stroke="black" points="370.5,0 370.5,-32 417.5,-32 417.5,0 370.5,0"/>
<text text-anchor="start" x="380" y="-19" font-family="Linux libertine" font-size="10.00">mask</text>
<text text-anchor="start" x="375.5" y="-8" font-family="Linux libertine" font-size="10.00">depth:0</text>
<polygon fill="none" stroke="black" points="417.5,0 417.5,-32 501.5,-32 501.5,0 417.5,0"/>
<text text-anchor="start" x="422.5" y="-13.5" font-family="Linux libertine" font-size="10.00">(1, 1, 224, 224)</text>
</g>
<!-- 11&#45;&gt;12 -->
<g id="edge12" class="edge">
<title>11&#45;&gt;12</title>
<path fill="none" stroke="black" d="M435.5,-67.84C435.5,-59.89 435.5,-50.66 435.5,-42.26"/>
<polygon fill="black" stroke="black" points="439,-42.24 435.5,-32.24 432,-42.24 439,-42.24"/>
</g>
</g>
</svg>
